<svg width="58" height="50" viewBox="0 0 58 50" fill="none" xmlns="http://www.w3.org/2000/svg">
<g clip-path="url(#clip0_86_6)">
<path d="M41.4743 25.031C41.4737 26.1328 41.0378 27.1894 40.2623 27.9684C39.4867 28.7475 38.4351 29.1852 37.3384 29.1855H8.28532V41.6235H0.0136719V8.28662H7.46166C7.7216 8.31274 7.98835 8.3258 8.26193 8.3258H8.28532V8.28662V20.8128H37.2761C38.3895 20.8128 39.4573 21.2572 40.2446 22.0483C41.0319 22.8393 41.4743 23.9123 41.4743 25.031Z" fill="#E7E7E7"/>
<path d="M2.42808 44.0661C3.19593 43.2911 4.10872 42.6763 5.11394 42.2572C6.11915 41.838 7.19694 41.6226 8.2853 41.6235V49.9962H1.66582e-06V49.9482C-0.000689092 48.8554 0.213452 47.7733 0.63013 46.7638C1.04681 45.7544 1.65782 44.8376 2.42808 44.0661Z" fill="#E7E7E7"/>
<path d="M8.28533 8.28662V8.32482H8.26193C7.9916 8.32482 7.72485 8.31176 7.46167 8.28564L8.28533 8.28662Z" fill="#E7E7E7"/>
<path d="M0 0H8.2853V8.28551H7.46164C5.41884 8.08576 3.52316 7.12918 2.14383 5.60208C0.764503 4.07498 0.000277155 2.0867 0 0.0244844L0 0Z" fill="#E7E7E7"/>
<path d="M57.9971 25.0005C57.9971 28.4372 57.3752 31.625 56.069 34.6249C54.7044 37.6874 52.9586 40.3131 50.7197 42.6244C48.4319 44.9111 45.7288 46.7356 42.757 47.9992C39.7163 49.3323 36.4324 50.0137 33.1149 50.0001H16.6037C16.5976 50.0002 16.5915 49.9985 16.5863 49.9952C16.5811 49.9919 16.577 49.9871 16.5745 49.9814V50.0001H8.28528V49.9481C8.28528 47.7403 9.1582 45.6229 10.712 44.0617C12.2658 42.5005 14.3732 41.6235 16.5706 41.6235H33.1178C35.3348 41.632 37.5323 41.2076 39.5881 40.3738C41.5785 39.4992 43.3818 38.3112 44.8751 36.7501C46.3625 35.2059 47.5631 33.4069 48.4202 31.438C49.2822 29.4021 49.7264 27.2125 49.7264 25.0001C49.7264 22.7877 49.2822 20.598 48.4202 18.5621C47.5641 16.5777 46.3402 14.775 44.8137 13.25C43.2905 11.7228 41.4976 10.494 39.5267 9.62633C37.491 8.79817 35.315 8.37348 33.1188 8.37566H16.6037C16.5954 8.37566 16.5875 8.37236 16.5817 8.36649C16.5758 8.36061 16.5725 8.35264 16.5725 8.34432V8.37273C15.4842 8.37422 14.4064 8.15963 13.4009 7.7413C12.3954 7.32296 11.482 6.70913 10.7134 5.93506C9.94249 5.16278 9.33113 4.24502 8.91444 3.23456C8.49775 2.22409 8.28393 1.14083 8.28528 0.0470652V5.52374e-05H33.1178C36.4345 -0.00706248 39.7171 0.673769 42.7599 1.99994C45.704 3.28059 48.3836 5.10358 50.6602 7.37474C52.9616 9.68803 54.7034 12.3127 56.0719 15.3753C57.3781 18.3751 57.9971 21.5629 57.9971 25.0005Z" fill="#E7E7E7"/>
<path d="M8.28533 8.28662V8.32482H8.26193C7.9916 8.32482 7.72485 8.31176 7.46167 8.28564L8.28533 8.28662Z" fill="#E7E7E7"/>
</g>
<defs>
<clipPath id="clip0_86_6">
<rect width="58" height="50" fill="white"/>
</clipPath>
</defs>
</svg>
